<?xml version="1.0" encoding="UTF-8" standalone="no"?>
<!-- Created with Inkscape (http://www.inkscape.org/) -->

<svg
   xmlns:dc="http://purl.org/dc/elements/1.1/"
   xmlns:cc="http://creativecommons.org/ns#"
   xmlns:rdf="http://www.w3.org/1999/02/22-rdf-syntax-ns#"
   xmlns:svg="http://www.w3.org/2000/svg"
   xmlns="http://www.w3.org/2000/svg"
   xmlns:sodipodi="http://sodipodi.sourceforge.net/DTD/sodipodi-0.dtd"
   xmlns:inkscape="http://www.inkscape.org/namespaces/inkscape"
   sodipodi:docname="combinearchive_box.svg"
   inkscape:version="0.48.4 r"
   version="1.1"
   id="svg5724"
   height="93.369301"
   width="128.77599">
  <sodipodi:namedview
     id="base"
     pagecolor="#ffffff"
     bordercolor="#666666"
     borderopacity="1.0"
     inkscape:pageopacity="0.0"
     inkscape:pageshadow="2"
     inkscape:zoom="4.24"
     inkscape:cx="28.567495"
     inkscape:cy="43.169687"
     inkscape:document-units="px"
     inkscape:current-layer="layer5"
     showgrid="false"
     showguides="true"
     inkscape:guide-bbox="true"
     inkscape:window-width="1600"
     inkscape:window-height="837"
     inkscape:window-x="-8"
     inkscape:window-y="-8"
     inkscape:window-maximized="1"
     fit-margin-top="0.2"
     fit-margin-right="0.2"
     fit-margin-bottom="0.2"
     fit-margin-left="0.2">
    <sodipodi:guide
       id="guide5738"
       position="223.21049,188.73321"
       orientation="1,0" />
    <sodipodi:guide
       id="guide6406"
       position="18.612281,73.152855"
       orientation="1,0" />
    <sodipodi:guide
       id="guide6408"
       position="46.850211,56.166545"
       orientation="1,0" />
    <sodipodi:guide
       id="guide6410"
       position="106.63862,69.519495"
       orientation="1,0" />
    <sodipodi:guide
       id="guide6456"
       position="69.515511,72.076445"
       orientation="1,0" />
  </sodipodi:namedview>
  <defs
     id="defs5726">
    <inkscape:path-effect
       bendpath4="m 158,226.95162 0,187.14284"
       bendpath3="m 158,414.09446 189.99999,0"
       bendpath2="m 347.99999,226.95162 0,187.14284"
       bendpath1="m 158,226.95162 189.99999,0"
       xx="true"
       yy="true"
       is_visible="true"
       id="path-effect6560"
       effect="envelope" />
    <inkscape:perspective
       id="perspective5740"
       inkscape:persp3d-origin="145.77307 : 424.52853 : 1"
       inkscape:vp_z="517.82031 : 599.92223 : 1"
       inkscape:vp_y="145.77307 : 1424.5285 : 1"
       inkscape:vp_x="17.172596 : 604.46791 : 1"
       sodipodi:type="inkscape:persp3d" />
  </defs>
  <metadata
     id="metadata5729">
    <rdf:RDF>
      <cc:Work
         rdf:about="">
        <dc:format>image/svg+xml</dc:format>
        <dc:type
           rdf:resource="http://purl.org/dc/dcmitype/StillImage" />
        <dc:title />
      </cc:Work>
    </rdf:RDF>
  </metadata>
  <g
     inkscape:label="Ebene 3"
     id="layer3"
     inkscape:groupmode="layer"
     transform="translate(-89.646649,-483.44037)">
    <path
       sodipodi:nodetypes="ccccc"
       inkscape:connector-curvature="0"
       id="path6458"
       d="m 159.16216,498.29351 c -1.16677,16.62477 0.0247,22.99587 0,31.69354 L 112.047,518.62284 108.25893,504.8595 c 16.7926,-2.83627 33.45835,-5.7073 50.90323,-6.56599 z"
       style="fill:#bb9f46;fill-opacity:1;stroke:#000000;stroke-width:1px;stroke-linecap:round;stroke-linejoin:round;stroke-opacity:1" />
    <path
       sodipodi:nodetypes="cccc"
       inkscape:connector-curvature="0"
       id="path6486"
       d="m 159.16216,498.32508 c 13.88005,3.24753 25.41963,8.16461 37.12311,13.16115 l -37.12311,21.67952 c -0.17339,-11.47492 -1.04536,-22.44825 0,-34.84067 z"
       style="fill:#7d6b2e;fill-opacity:1;stroke:#000000;stroke-width:1px;stroke-linecap:round;stroke-linejoin:round;stroke-opacity:1" />
  </g>
  <g
     id="layer1"
     inkscape:groupmode="layer"
     inkscape:label="Ebene 1"
     transform="translate(-89.646649,-483.44037)">
    <path
       sodipodi:nodetypes="ccccc"
       inkscape:connector-curvature="0"
       id="path5892"
       d="m 108.25893,504.81215 c 7.57904,6.87347 16.95507,12.76675 28.23793,17.61995 -2.73879,17.66036 0,35.63776 0,53.66007 -10.38873,-10.02923 -20.80442,-20.04349 -28.23793,-31.71452 -0.87575,-12.89858 -0.86848,-24.81825 0,-39.5655 z"
       style="fill:#937d36;fill-opacity:1;stroke:#000000;stroke-width:1px;stroke-linecap:round;stroke-linejoin:round;stroke-opacity:0.80656936" />
    <path
       sodipodi:nodetypes="ccccc"
       inkscape:connector-curvature="0"
       id="path5894"
       d="m 136.49686,522.44876 c 20.75863,-1.56896 40.35887,-6.03388 59.78841,-10.92555 -1.49762,15.31149 -1.18839,30.17127 2.1e-4,44.8112 -19.2701,8.23665 -39.17185,14.89419 -59.78841,19.7647 -2.1e-4,-18.36138 -2.72337,-35.49458 -2.1e-4,-53.65035 z"
       style="fill:#bb9f46;fill-opacity:1;stroke:#000000;stroke-width:1px;stroke-linecap:round;stroke-linejoin:round;stroke-opacity:0.80656936" />
    <path
       sodipodi:nodetypes="ccccc"
       inkscape:connector-curvature="0"
       id="path6404"
       d="m 108.24219,504.81196 c 16.719,-2.67095 33.27431,-5.66926 50.90419,-6.51845 13.83664,3.37794 25.66406,8.16233 37.14826,13.18697 -19.53555,4.97485 -39.26132,9.31561 -59.79778,10.95409 -10.57764,-4.68782 -20.33787,-10.33685 -28.25467,-17.62261 z"
       style="fill:none;stroke:#000000;stroke-width:1px;stroke-linecap:round;stroke-linejoin:round;stroke-opacity:0.80656936" />
  </g>
  <g
     style="display:inline"
     inkscape:label="Ebene 2"
     id="layer2"
     inkscape:groupmode="layer"
     transform="translate(-89.646649,-483.44037)">
    <path
       sodipodi:nodetypes="ccccc"
       inkscape:connector-curvature="0"
       id="path6432"
       d="m 196.28527,511.45084 c 5.64083,-4.35582 10.44488,-9.21372 17.61453,-12.65225 -12.41733,-5.13419 -23.58679,-11.33799 -38.13326,-14.64721 -4.53999,6.22562 -10.87778,9.75454 -16.65811,14.11964 13.06314,3.11356 25.36225,8.19473 37.17684,13.17982 z"
       style="fill:#9e863a;fill-opacity:1;stroke:#000000;stroke-width:1px;stroke-linecap:round;stroke-linejoin:round;stroke-opacity:1" />
    <path
       sodipodi:nodetypes="ccccc"
       inkscape:connector-curvature="0"
       id="path6434"
       d="m 108.25893,504.80965 c -3.81147,-5.405 -7.7612,-10.67174 -13.557129,-14.09229 16.735639,-1.63205 33.702979,-1.87387 50.139979,-5.29772 7.62772,3.50653 9.97032,8.45445 14.24862,12.87446 -16.82807,0.66709 -33.62077,3.87315 -50.83147,6.51555 z"
       style="fill:#c0a755;fill-opacity:1;stroke:#000000;stroke-width:1px;stroke-linecap:round;stroke-linejoin:round;stroke-opacity:1" />
    <path
       sodipodi:nodetypes="ccccc"
       inkscape:connector-curvature="0"
       id="path6436"
       d="m 108.25893,504.811 c 8.50057,7.60757 16.91253,12.52278 28.23793,17.6293 -6.90949,-2.11121 -13.73341,-5.07801 -20.96115,-4.00669 -9.83469,-5.16696 -18.034732,-11.76425 -25.178567,-19.28571 6.317032,1.36305 12.872077,2.36907 17.901787,5.6631 z"
       style="fill:#7b682d;fill-opacity:1;stroke:#000000;stroke-width:1px;stroke-linecap:round;stroke-linejoin:round;stroke-opacity:1" />
    <path
       sodipodi:nodetypes="ccccc"
       inkscape:connector-curvature="0"
       id="path6438"
       d="m 136.49686,522.4403 c 19.72641,-1.55333 39.18833,-5.59957 59.78841,-10.94866 1.94974,-2.17127 13.32103,-3.87146 21.3933,-5.7366 -24.37096,1.80036 -48.46203,6.67961 -72.5,12.14286 -2.12696,1.64196 -4.55779,3.23327 -8.68171,4.5424 z"
       style="fill:#c8b26a;fill-opacity:1;stroke:#000000;stroke-width:1px;stroke-linecap:round;stroke-linejoin:round;stroke-opacity:1" />
  </g>
  <g
     inkscape:label="Ebene 4"
     id="layer4"
     inkscape:groupmode="layer"
     transform="translate(-89.646649,-483.44037)">
    <g
       transform="matrix(0,-0.20008882,0.20008882,0,100.85099,595.39365)"
       id="layer2-5"
       inkscape:label="Layer"
       style="display:inline">
      <g
         id="g3874"
         transform="translate(-2,0)">
        <path
           sodipodi:nodetypes="cssccssc"
           inkscape:connector-curvature="0"
           id="rect5005"
           d="m 284.86605,387.59862 c 0,0 46.23863,0 46.23863,0 8.28886,0 13.23011,-7.29157 11.04612,-16.43995 0,0 -14.21164,-59.53051 -14.21164,-59.53051 m -59.27807,-51.63601 c 0,0 -53.53145,0 -53.53145,0 -9.0238,0 -13.61936,8.55143 -10.33665,19.03049 0,0 23.87515,76.21413 23.87515,76.21413"
           style="fill:none;stroke:#323232;stroke-width:5.00261307;stroke-miterlimit:4;stroke-opacity:1;stroke-dasharray:none" />
        <path
           inkscape:connector-curvature="0"
           id="path4449"
           d="m 331.35979,332.32791 c -12.35224,0 -25.25293,-11.36164 -28.87733,-25.62409 -3.69568,-14.54299 3.62756,-26.54405 16.42327,-26.54405 12.79571,0 25.84896,12.00106 29.09695,26.54405 3.18533,14.26245 -4.29067,25.62409 -16.64289,25.62409 0,0 0,0 0,0"
           style="fill:#1d636a;fill-opacity:1;stroke:none"
           transform="matrix(1.027027,0,0,1.027027,-6.9305018,-6.8674184)" />
        <path
           inkscape:connector-curvature="0"
           id="path4451"
           d="m 252.11275,234.54076 c -12.36916,0 -25.9184,-11.39056 -30.33776,-25.68303 -4.50405,-14.56639 2.15871,-26.58127 14.96047,-26.58127 12.80174,0 26.53459,12.01488 30.60204,26.58127 3.99095,14.29247 -2.8556,25.68303 -15.22475,25.68303 0,0 0,0 0,0"
           style="fill:#1d636a;fill-opacity:1;stroke:none"
           transform="translate(-2.142857,97.857143)" />
        <path
           inkscape:connector-curvature="0"
           id="path4451-6"
           d="m 224.50193,326.96813 c -11.65592,0 -24.09268,-10.14087 -27.86347,-22.93941 -3.86832,-13.12954 2.81773,-24.02495 15.02522,-24.02495 12.20749,0 24.85032,10.89541 28.16022,24.02495 3.22646,12.79854 -3.66606,22.93941 -15.32197,22.93941 0,0 0,0 0,0"
           style="fill:#89cd3b;fill-opacity:1;stroke:none"
           transform="matrix(1.4189189,0,0,1.4189189,-13.85135,-45.373557)" />
        <path
           inkscape:connector-curvature="0"
           id="path5001"
           d="m 328.01687,239.33713 c -12.72358,0 -26.42767,-12.05148 -30.67987,-27.16986 -4.3326,-15.40424 2.76492,-28.10727 15.92749,-28.10727 13.16256,0 27.04046,12.70303 30.93005,28.10727 3.8174,15.11838 -3.45409,27.16986 -16.17767,27.16986 0,0 0,0 0,0"
           style="fill:#89cd3b;fill-opacity:1;stroke:none"
           transform="matrix(0.95945944,0,0,0.95945944,-35.318532,59.943984)" />
        <path
           inkscape:connector-curvature="0"
           id="path5003"
           d="m 296.49383,320.97172 c -12.25167,0 -25.25982,-11.14597 -29.09706,-25.04929 -3.88503,-14.07649 3.08689,-25.61705 15.61625,-25.61705 12.52935,0 25.64249,11.54056 29.24813,25.61705 3.56129,13.90332 -3.51565,25.04929 -15.76732,25.04929 0,0 0,0 0,0"
           style="fill:#bab0b3;fill-opacity:1;stroke:none"
           transform="matrix(0.66216215,0,0,0.66216215,99.488417,134.05702)" />
        <path
           inkscape:connector-curvature="0"
           id="path5013"
           d="m 191.09256,258.56057 c -11.90175,0 -25.02731,-10.55444 -29.39839,-23.82177 -4.46393,-13.54916 1.86975,-24.746 14.23326,-24.746 12.3635,0 25.68954,11.19684 29.68697,24.746 3.91429,13.26733 -2.62009,23.82177 -14.52184,23.82177 0,0 0,0 0,0"
           style="fill:#dedb29;fill-opacity:1;stroke:none"
           transform="matrix(1.1486486,0,0,1.1486486,21.167954,91.872055)" />
      </g>
      <g
         id="text5019"
         style="font-size:40px;font-style:normal;font-weight:normal;line-height:125%;letter-spacing:0px;word-spacing:0px;fill:#000000;fill-opacity:1;stroke:none;font-family:Bitstream Vera Sans" />
      <g
         id="text5023"
         style="font-size:40px;font-style:normal;font-weight:normal;line-height:125%;letter-spacing:0px;word-spacing:0px;fill:#000000;fill-opacity:1;stroke:none;font-family:Bitstream Vera Sans" />
      <g
         id="text5027"
         style="font-size:40px;font-style:normal;font-weight:normal;line-height:125%;letter-spacing:0px;word-spacing:0px;fill:#000000;fill-opacity:1;stroke:none;font-family:Bitstream Vera Sans" />
      <g
         id="text2998"
         style="font-size:40px;font-style:normal;font-weight:normal;line-height:125%;letter-spacing:0px;word-spacing:0px;fill:#000000;fill-opacity:1;stroke:none;font-family:Bitstream Vera Sans" />
    </g>
  </g>
  <g
     inkscape:groupmode="layer"
     id="layer5"
     inkscape:label="Einstellungen"
     style="display:none"
     sodipodi:insensitive="true"
     transform="translate(-89.646649,-483.44037)">
    <path
       inkscape:connector-curvature="0"
       id="path6710"
       d="m 148.18042,528.86604 36.4213,-8.13422 0,29.90238 -36.4213,11.99942 z"
       style="fill:none;stroke:#eb20a0;stroke-width:0.60916978px;stroke-linecap:butt;stroke-linejoin:miter;stroke-opacity:1" />
  </g>
</svg>
